<svg xmlns="http://www.w3.org/2000/svg" width="56" height="48" viewBox="0 0 56 48"><defs><clipPath id="esepa"><path fill="#fff" d="M27 19V0h19v19zm9.5-2a7.5 7.5 0 1 0 0-15 7.5 7.5 0 0 0 0 15z"/></clipPath></defs><g><g><g><g><g><text dominant-baseline="text-before-edge" style="font-kerning:normal" fill="#fff" font-family="'Roboto','Roboto-Regular'" font-size="10" letter-spacing=".5" transform="translate(-1 38)"><tspan style="font-kerning:normal">Notification</tspan></text></g></g><g><g><path fill="#f7f9ff" d="M28 3c-.512 0-.936.387-.994.884L27 4v2.54l-.714.213a6.01 6.01 0 0 0-4.281 5.498l-.006.249v2.507a9.506 9.506 0 0 1-1.182 4.59l-.171.297L19.382 22h17.235l-1.262-2.104a9.501 9.501 0 0 1-1.349-4.545L34 15.007V12.5a6.008 6.008 0 0 0-4.052-5.672l-.235-.075L29 6.54V4c0-.55-.45-1-1-1zm0-1c1.053 0 1.918.817 1.994 1.85L30 4v1.795c2.805.838 4.879 3.388 4.995 6.435l.005.27v2.507c0 1.422.357 2.82 1.036 4.066l.176.308 1.717 2.862a.502.502 0 0 1-.34.75L37.5 23h-19a.499.499 0 0 1-.468-.678l.04-.08 1.716-2.862a8.507 8.507 0 0 0 1.204-4.018l.007-.355V12.5c0-3.075 1.994-5.689 4.755-6.627L26 5.795V4c0-1.103.897-2 2-2zm3 22c-.537 1.178-1.675 2-3 2-1.255 0-2.342-.738-2.91-1.817L25 24z"/></g></g></g><g><path fill="#fff" d="M36.5 17a7.5 7.5 0 1 0 0-15 7.5 7.5 0 0 0 0 15z"/><path fill="none" stroke="#334ab7" stroke-miterlimit="20" stroke-width="4" d="M36.5 17a7.5 7.5 0 1 0 0-15 7.5 7.5 0 0 0 0 15z" clip-path="url(&quot;#esepa&quot;)"/></g><g><g><text dominant-baseline="text-before-edge" style="font-kerning:normal" fill="#334ab7" font-family="'Roboto','Roboto-Bold'" font-size="10" transform="translate(33 4)"><tspan style="font-kerning:normal">8</tspan></text></g></g></g></g></svg>