<svg xmlns="http://www.w3.org/2000/svg" width="33" height="46" viewBox="0 0 33 46"><g><g><g><g><text dominant-baseline="text-before-edge" style="font-kerning:normal" fill="#fff" font-family="'Roboto','Roboto-Regular'" font-size="10" letter-spacing=".5" transform="translate(0 36)"><tspan style="font-kerning:normal">Search</tspan></text></g></g><g><path fill="#f7f9ff" d="M24.323 9.69a8.71 8.71 0 0 1-2.17 5.737l-.459.527 6.41 6.435.059.071a.484.484 0 0 1-.075.638.578.578 0 0 1-.396.152.572.572 0 0 1-.413-.167l-6.4-6.426-.513.349-.298.194a9.433 9.433 0 0 1-5.031 1.43c-5.126 0-9.287-4.017-9.287-8.94 0-4.923 4.161-8.94 9.287-8.94 5.125 0 9.286 4.017 9.286 8.94zm-17.455 0c0 4.37 3.67 7.912 8.169 7.912 4.499 0 8.168-3.542 8.168-7.912s-3.67-7.912-8.168-7.912c-4.5 0-8.169 3.542-8.169 7.912z"/></g></g></g></svg>