<svg xmlns="http://www.w3.org/2000/svg" width="52" height="46" viewBox="0 0 52 46"><g><g><path fill="#fff" d="M36.25 0c.917 0 1.671.708 1.744 1.607L38 1.75v10.5c0 .917-.708 1.671-1.607 1.744L36.25 14h-7.5a1.752 1.752 0 0 1-1.744-1.607L27 12.25V1.75c0-.917.708-1.671 1.607-1.744L28.75 0zm0 16c.917 0 1.671.708 1.744 1.607l.006.143v4.5c0 .917-.708 1.671-1.607 1.744L36.25 24h-7.5a1.752 1.752 0 0 1-1.744-1.607L27 22.25v-4.5c0-.917.708-1.671 1.607-1.744L28.75 16zm-13-6c.917 0 1.671.708 1.744 1.607l.006.143v10.5c0 .917-.708 1.671-1.607 1.744L23.25 24h-7.5a1.752 1.752 0 0 1-1.744-1.607L14 22.25v-10.5c0-.917.708-1.671 1.607-1.744L15.75 10zm0-10c.917 0 1.671.708 1.744 1.607L25 1.75v4.5c0 .917-.708 1.671-1.607 1.744L23.25 8h-7.5a1.752 1.752 0 0 1-1.744-1.607L14 6.25v-4.5c0-.917.708-1.671 1.607-1.744L15.75 0z"/></g><g><g><text dominant-baseline="text-before-edge" style="font-kerning:normal" fill="#fff" font-family="'Roboto','Roboto-Bold'" font-size="10" letter-spacing=".5" transform="translate(0 36)"><tspan style="font-kerning:normal">Dashboard</tspan></text></g></g></g></svg>