<svg xmlns="http://www.w3.org/2000/svg" width="38" height="45" viewBox="0 0 38 45"><defs><clipPath id="g2zva"><path fill="#fff" d="M7 24V0h25v24zm9.83-9.63a.5.5 0 0 0 .5.5h4.33a.5.5 0 0 0 .5-.5v-2.29h-5.33zM30.5 12h-7.34v2.66a1 1 0 0 1-1 1h-5.33a1 1 0 0 1-1-1V12H8.5v10.14c0 .475.385.86.86.86h20.28a.86.86 0 0 0 .86-.86zm-.86-7.563h-6.273V1.86a.86.86 0 0 0-.86-.859h-6.015a.86.86 0 0 0-.86.86v2.577H9.36a.86.86 0 0 0-.859.86v5.786h7.33v-.003h7.33v.003h7.34V5.297a.86.86 0 0 0-.86-.86zM17.353 2.72h4.296v1.719h-4.296z"/></clipPath></defs><g><g><g><g><text dominant-baseline="text-before-edge" style="font-kerning:normal" fill="#fff" font-family="'Roboto','Roboto-Regular'" font-size="10" letter-spacing=".5" transform="translate(-1 35)"><tspan style="font-kerning:normal">Process</tspan></text></g></g><g><path fill="none" stroke="#f7f9ff" stroke-miterlimit="20" stroke-width="2" d="M16.83 12.08h5.33v2.29a.5.5 0 0 1-.5.5h-4.33a.5.5 0 0 1-.5-.5zM30.5 22.14a.86.86 0 0 1-.86.86H9.36a.86.86 0 0 1-.86-.86V12h7.33v2.66a1 1 0 0 0 1 1h5.33a1 1 0 0 0 1-1V12h7.34zm0-16.843v5.786h-7.34v-.003h-7.33v.003H8.5V5.297a.86.86 0 0 1 .86-.86h6.273V1.86a.86.86 0 0 1 .86-.859h6.015a.86.86 0 0 1 .86.86v2.578h6.273a.86.86 0 0 1 .859.859zm-13.148-.86h4.296V2.72h-4.296z" clip-path="url(&quot;#g2zva&quot;)"/></g></g></g></svg>