<svg xmlns="http://www.w3.org/2000/svg" width="25" height="46" viewBox="0 0 25 46"><g><g><g><path fill="#f7f9ff" d="M12.143 12.005a.862.862 0 1 0 1.724 0 .862.862 0 0 0-1.724 0zM15.57 12A2.574 2.574 0 0 1 13 14.571 2.574 2.574 0 0 1 10.429 12 2.574 2.574 0 0 1 13 9.429 2.574 2.574 0 0 1 15.571 12zm1.966-5.749L15.36 8.427A4.26 4.26 0 0 0 13 7.714a4.26 4.26 0 0 0-2.361.713L8.463 6.25a.857.857 0 1 0-1.212 1.212L9.427 9.64A4.26 4.26 0 0 0 8.714 12c0 .872.264 1.683.713 2.361L7.25 16.537a.857.857 0 1 0 1.212 1.212l2.176-2.176a4.26 4.26 0 0 0 2.361.713 4.26 4.26 0 0 0 2.361-.713l2.176 2.176a.857.857 0 1 0 1.212-1.212l-2.176-2.176A4.26 4.26 0 0 0 17.286 12a4.26 4.26 0 0 0-.713-2.361l2.176-2.176a.857.857 0 1 0-1.212-1.212zm4.909-5.245C23.31 1.084 24 1.84 24 2.77v18.462l-.006.153C23.919 22.292 23.182 23 22.3 23H3.7l-.146-.006C2.69 22.916 2 22.159 2 21.23V2.769l.006-.153C2.081 1.708 2.818 1 3.7 1h18.6zM3.7 0l-.164.005C2.123.092 1 1.3 1 2.77v18.462l.005.168C1.09 22.85 2.266 24 3.7 24h18.6l.164-.005C23.877 23.908 25 22.7 25 21.23V2.769l-.005-.168C24.91 1.15 23.734 0 22.3 0z"/></g><g><g><text dominant-baseline="text-before-edge" style="font-kerning:normal" fill="#fff" font-family="'Roboto','Roboto-Regular'" font-size="10" letter-spacing=".5" transform="translate(0 36)"><tspan style="font-kerning:normal">Vault</tspan></text></g></g></g></g></svg>