<svg xmlns="http://www.w3.org/2000/svg" width="40" height="40" viewBox="0 0 40 40"><defs><clipPath id="frdca"><path fill="#fff" d="M20 40c11.046 0 20-8.954 20-20S31.046 0 20 0 0 8.954 0 20s8.954 20 20 20z"/></clipPath></defs><g><g><g><path fill="#de350d" d="M20 40c11.046 0 20-8.954 20-20S31.046 0 20 0 0 8.954 0 20s8.954 20 20 20z"/><path fill="none" stroke="#fff" stroke-miterlimit="20" stroke-width="4" d="M20 40c11.046 0 20-8.954 20-20S31.046 0 20 0 0 8.954 0 20s8.954 20 20 20z" clip-path="url(&quot;#frdca&quot;)"/></g><g><g><text dominant-baseline="text-before-edge" style="font-kerning:normal" fill="#fff" font-family="'Roboto','Roboto-Bold'" font-size="16" letter-spacing=".8" transform="translate(9 11)"><tspan style="font-kerning:normal">BA</tspan></text></g></g></g></g></svg>