<svg xmlns="http://www.w3.org/2000/svg" width="240" height="32" viewBox="0 0 240 32"><defs><clipPath id="qv11a"><path fill="#fff" d="M0 4a4 4 0 0 1 4-4h232a4 4 0 0 1 4 4v24a4 4 0 0 1-4 4H4a4 4 0 0 1-4-4z"/></clipPath></defs><g><g><g><path fill="#fff" d="M0 4a4 4 0 0 1 4-4h232a4 4 0 0 1 4 4v24a4 4 0 0 1-4 4H4a4 4 0 0 1-4-4z"/><path fill="none" stroke="#c9d4ff" stroke-miterlimit="20" stroke-width="2" d="M0 4a4 4 0 0 1 4-4h232a4 4 0 0 1 4 4v24a4 4 0 0 1-4 4H4a4 4 0 0 1-4-4z" clip-path="url(&quot;#qv11a&quot;)"/></g><g><path fill="#565656" d="M213 10h14a1 1 0 0 1 0 2h-14a1 1 0 0 1 0-2zm2 5h10a1 1 0 0 1 0 2h-10a1 1 0 0 1 0-2zm2 5h6a1 1 0 0 1 0 2h-6a1 1 0 0 1 0-2z"/></g><g><path fill="#c4cde8" d="M199 0h1v32h-1z"/></g><g><g><text dominant-baseline="text-before-edge" style="font-kerning:normal" fill="#484848" font-family="'Roboto','Roboto-Regular'" font-size="14" letter-spacing=".2" transform="translate(12 8)"><tspan style="font-kerning:normal">Last 2 months</tspan></text></g></g><g><g><text dominant-baseline="text-before-edge" style="font-kerning:normal" fill="#a7a7a7" font-family="'Roboto','Roboto-Regular'" font-size="14" letter-spacing=".2" transform="translate(98 8)"><tspan style="font-kerning:normal">-</tspan></text></g></g></g></g></svg>