<svg xmlns="http://www.w3.org/2000/svg" width="48" height="48" viewBox="0 0 48 48"><defs><linearGradient id="4hgda" x1="34.04" x2="12.07" y1="10.97" y2="14.72" gradientUnits="userSpaceOnUse"><stop offset="0" stop-color="#de1111"/><stop offset="1" stop-color="#fd4c4d"/></linearGradient><linearGradient id="4hgdb" x1="36.27" x2="28.31" y1="15.48" y2="22.34" gradientUnits="userSpaceOnUse"><stop offset="0" stop-color="#57b1ff"/><stop offset="1" stop-color="#0f92d6"/></linearGradient><linearGradient id="4hgdc" x1="18.78" x2="38.36" y1="37.57" y2="38.56" gradientUnits="userSpaceOnUse"><stop offset="0" stop-color="#ffd166"/><stop offset="1" stop-color="#df9200"/></linearGradient><linearGradient id="4hgdd" x1="18.02" x2="24.09" y1="18.47" y2="25.26" gradientUnits="userSpaceOnUse"><stop offset="0" stop-color="#08b6c2"/><stop offset="1" stop-color="#24ddea"/></linearGradient></defs><g><g><g><path fill="#fff" d="M0 8a8 8 0 0 1 8-8h32a8 8 0 0 1 8 8v32a8 8 0 0 1-8 8H8a8 8 0 0 1-8-8z"/></g><g><g><path fill="url(#4hgda)" d="M30.006 6.504l.312.079.392.107 1.532.513c.277.107.561.225.844.352l.429.198.672.339.426.234a17.697 17.697 0 0 1 5.927 5.464c.674.993.51 2.33-.376 3.13l-.121.103-12.16 9.706a3.504 3.504 0 0 1-4.429-.043l-.14-.123-5.748-5.285a2.402 2.402 0 0 1-.249-3.261l.104-.122.128-.13a2.418 2.418 0 0 1 3.18-.122l.123.106 4.906 4.494 8.547-6.808c.549-.507.559-.915.018-1.432l-.096-.089-.112-.097c-.405-.34-.828-.651-1.27-.937l-.333-.208-.345-.2-.254-.14-.278-.143-.204-.1-.284-.132a13.038 13.038 0 0 0-10.287-.179 12.89 12.89 0 0 0-7.755 9.288l-.057.294-.07.42-.043.313-.036.324c-.019.185-.033.369-.043.55l-.012.264-.007.424v.169l.007.28.018.374c.34 5.396 4.037 10.002 9.238 11.533l.281.08.364.093.276.063.253.053.306.056.193.032.238.034.298.039a13.038 13.038 0 0 0 11.113-4.17l.213-.238.069-.07c.441-.423.935-.661 1.488-.71l.181-.01.163.005c.87.078 1.55.53 1.984 1.332l.083.164.073.166c.228.617.174 1.273-.167 1.918l-.114.2-.09.13c-3.357 3.908-8.306 6.177-13.517 6.175l-.376-.004-.372-.012-.409-.021-.407-.031-.58-.06c-.22-.027-.443-.058-.666-.093l-.336-.057-.369-.07c-7.01-1.402-12.514-6.86-13.925-13.855-1.665-8.259 2.766-16.537 10.589-19.783a17.866 17.866 0 0 1 11.07-.863z"/></g><g><path fill="url(#4hgdb)" d="M32.24 7.208c.277.107.562.225.845.352l.428.198.673.339.426.234a17.696 17.696 0 0 1 5.926 5.464c.674.993.51 2.33-.376 3.13l-.12.103-6.655 5.311c-2.635 1.985-5.177 1.954-7.626-.091l-.001-.003 7.37-5.87c.378-.279.754-.578 1.126-.898l.048-.037.04-.038c.072-.062.144-.126.216-.19 2.798-2.496 1.981-5.178-2.45-8.048z"/></g><g><path fill="url(#4hgdc)" d="M12.86 24.488c.34 5.398 4.036 10.005 9.237 11.537l.281.08.364.092.276.064.253.052.306.057.193.031.238.035.298.038a13.036 13.036 0 0 0 11.113-4.17l.213-.239.069-.069c.441-.424.935-.662 1.488-.71l.181-.01.163.005c.87.077 1.55.53 1.984 1.332l.083.163.073.166c.228.618.174 1.274-.167 1.919l-.114.201-.09.128a17.722 17.722 0 0 1-7.377 5.095c-1.906.617-4.293.94-7.205.368-3.976-.782-8.519-4.254-10.946-10.862-.737-2.006-.944-5.641-.944-5.641l.014.014z"/></g><g><path fill="url(#4hgdd)" d="M27.88 26.733a3.504 3.504 0 0 1-4.43-.043l-.14-.122-5.748-5.285a2.402 2.402 0 0 1-.248-3.262l.103-.122.129-.13a2.418 2.418 0 0 1 3.18-.12l.122.105 4.906 4.494.004-.003v.003c2.48 2.072 5.054 2.077 7.724.014z"/></g></g></g></g></svg>